<svg width="98" height="98" viewBox="0 0 98 98" fill="none" xmlns="http://www.w3.org/2000/svg">
<g filter="url(#filter0_d_8_91)">
<path d="M38.8053 30.7161C42.1348 31.9549 46.321 29.5132 48.1556 25.2624C49.9901 21.0115 48.7783 16.5612 45.4488 15.3223C42.1194 14.0834 37.9331 16.5251 36.0985 20.776C34.264 25.0269 35.4759 29.4772 38.8053 30.7161Z" fill="url(#paint0_linear_8_91)"/>
<path d="M32.3594 56.931C34.4797 58.0677 35.14 59.2864 35.8025 60.5091C36.4691 61.7396 37.138 62.974 39.2994 64.1328C45.7217 67.5757 51.1994 60.0685 49.3858 53.8745C48.7936 51.852 48.7404 49.9329 48.6904 48.1329C48.5874 44.4202 48.4984 41.2145 43.7233 38.6546C38.9509 36.0961 35.9197 37.6257 32.4078 39.398C30.7024 40.2586 28.8836 41.1765 26.6969 41.7111C20.0074 43.3468 15.7502 51.5082 22.1724 54.9511C24.3339 56.1099 25.8197 56.0305 27.3006 55.9513C28.7722 55.8727 30.239 55.7943 32.3594 56.931Z" fill="url(#paint1_linear_8_91)"/>
<path d="M64.6271 25.5669C67.4473 27.6248 67.2631 32.212 64.2157 35.8126C61.1683 39.4133 56.4117 40.6639 53.5915 38.606C50.7713 36.5481 50.9554 31.9609 54.0028 28.3603C57.0502 24.7596 61.8069 23.5089 64.6271 25.5669Z" fill="url(#paint2_linear_8_91)"/>
<path d="M23.723 34.5079C26.4058 34.6887 28.7912 32.1427 29.0509 28.8212C29.3106 25.4997 27.3463 22.6605 24.6634 22.4796C21.9806 22.2988 19.5952 24.8448 19.3355 28.1663C19.0758 31.4878 21.0401 34.327 23.723 34.5079Z" fill="url(#paint3_linear_8_91)"/>
<path d="M68.3431 45.8529C69.8532 47.9198 68.6713 51.111 65.7033 52.9806C62.7353 54.8502 59.105 54.6902 57.5949 52.6232C56.0848 50.5563 57.2667 47.3651 60.2347 45.4955C63.2028 43.6259 66.833 43.7859 68.3431 45.8529Z" fill="url(#paint4_linear_8_91)"/>
</g>
<defs>
<filter id="filter0_d_8_91" x="0" y="0" width="98" height="98" filterUnits="userSpaceOnUse" color-interpolation-filters="sRGB">
<feFlood flood-opacity="0" result="BackgroundImageFix"/>
<feColorMatrix in="SourceAlpha" type="matrix" values="0 0 0 0 0 0 0 0 0 0 0 0 0 0 0 0 0 0 127 0" result="hardAlpha"/>
<feOffset dx="5" dy="9"/>
<feGaussianBlur stdDeviation="12"/>
<feComposite in2="hardAlpha" operator="out"/>
<feColorMatrix type="matrix" values="0 0 0 0 1 0 0 0 0 0.619608 0 0 0 0 0.494118 0 0 0 0.08 0"/>
<feBlend mode="normal" in2="BackgroundImageFix" result="effect1_dropShadow_8_91"/>
<feBlend mode="normal" in="SourceGraphic" in2="effect1_dropShadow_8_91" result="shape"/>
</filter>
<linearGradient id="paint0_linear_8_91" x1="43.3066" y1="20.5689" x2="40.2203" y2="79.0693" gradientUnits="userSpaceOnUse">
<stop offset="0.277018" stop-color="#C4C4C3"/>
<stop offset="1" stop-color="#FF926A"/>
<stop offset="1" stop-color="#FF926A"/>
</linearGradient>
<linearGradient id="paint1_linear_8_91" x1="43.3066" y1="20.5689" x2="40.2203" y2="79.0693" gradientUnits="userSpaceOnUse">
<stop offset="0.277018" stop-color="#C4C4C3"/>
<stop offset="1" stop-color="#FF926A"/>
<stop offset="1" stop-color="#FF926A"/>
</linearGradient>
<linearGradient id="paint2_linear_8_91" x1="43.3066" y1="20.5689" x2="40.2203" y2="79.0693" gradientUnits="userSpaceOnUse">
<stop offset="0.277018" stop-color="#C4C4C3"/>
<stop offset="1" stop-color="#FF926A"/>
<stop offset="1" stop-color="#FF926A"/>
</linearGradient>
<linearGradient id="paint3_linear_8_91" x1="43.3066" y1="20.5689" x2="40.2203" y2="79.0693" gradientUnits="userSpaceOnUse">
<stop offset="0.277018" stop-color="#C4C4C3"/>
<stop offset="1" stop-color="#FF926A"/>
<stop offset="1" stop-color="#FF926A"/>
</linearGradient>
<linearGradient id="paint4_linear_8_91" x1="43.3066" y1="20.5689" x2="40.2203" y2="79.0693" gradientUnits="userSpaceOnUse">
<stop offset="0.277018" stop-color="#C4C4C3"/>
<stop offset="1" stop-color="#FF926A"/>
<stop offset="1" stop-color="#FF926A"/>
</linearGradient>
</defs>
</svg>
